<svg width="22" height="19" viewBox="0 0 22 19" fill="none" xmlns="http://www.w3.org/2000/svg">
<path d="M20.1961 13.4508H6.23906L6.93984 12.0234L18.5836 12.0023C18.9773 12.0023 19.3148 11.7211 19.3852 11.332L20.9977 2.30625C21.0398 2.06953 20.9766 1.82578 20.8219 1.64062C20.7454 1.5495 20.6501 1.4761 20.5424 1.42551C20.4348 1.37492 20.3174 1.34835 20.1984 1.34766L5.38594 1.29844L5.25937 0.703125C5.17969 0.323437 4.8375 0.046875 4.44844 0.046875H0.827344C0.607918 0.046875 0.39748 0.134041 0.242323 0.289198C0.0871663 0.444355 0 0.654794 0 0.874219C0 1.09364 0.0871663 1.30408 0.242323 1.45924C0.39748 1.6144 0.607918 1.70156 0.827344 1.70156H3.77812L4.33125 4.33125L5.69297 10.9242L3.93984 13.7859C3.8488 13.9088 3.79396 14.0547 3.78154 14.2071C3.76911 14.3596 3.79959 14.5124 3.86953 14.6484C4.01016 14.9273 4.29375 15.1031 4.60781 15.1031H6.07969C5.7659 15.5199 5.59642 16.0275 5.59687 16.5492C5.59687 17.8758 6.675 18.9539 8.00156 18.9539C9.32812 18.9539 10.4062 17.8758 10.4062 16.5492C10.4062 16.0266 10.2328 15.518 9.92344 15.1031H13.6992C13.3854 15.5199 13.2159 16.0275 13.2164 16.5492C13.2164 17.8758 14.2945 18.9539 15.6211 18.9539C16.9477 18.9539 18.0258 17.8758 18.0258 16.5492C18.0258 16.0266 17.8523 15.518 17.543 15.1031H20.1984C20.6531 15.1031 21.0258 14.7328 21.0258 14.2758C21.0244 14.0566 20.9364 13.8468 20.781 13.6923C20.6255 13.5377 20.4153 13.4509 20.1961 13.4508ZM5.73047 2.92969L19.2258 2.97422L17.9039 10.3758L7.30312 10.3945L5.73047 2.92969ZM8.00156 17.2898C7.59375 17.2898 7.26094 16.957 7.26094 16.5492C7.26094 16.1414 7.59375 15.8086 8.00156 15.8086C8.40937 15.8086 8.74219 16.1414 8.74219 16.5492C8.74219 16.7456 8.66416 16.934 8.52526 17.0729C8.38637 17.2118 8.19799 17.2898 8.00156 17.2898ZM15.6211 17.2898C15.2133 17.2898 14.8805 16.957 14.8805 16.5492C14.8805 16.1414 15.2133 15.8086 15.6211 15.8086C16.0289 15.8086 16.3617 16.1414 16.3617 16.5492C16.3617 16.7456 16.2837 16.934 16.1448 17.0729C16.0059 17.2118 15.8175 17.2898 15.6211 17.2898Z" fill="#2D2347"/>
</svg>
