<svg width="101" height="58" viewBox="0 0 101 58" fill="none" xmlns="http://www.w3.org/2000/svg">
<path d="M49.4014 8.9549L9.07666 23.5423L49.4014 16.4893V8.9549Z" fill="#FFE500"/>
<path d="M48.4536 41.211C48.4536 40.4649 47.943 40.1277 47.6513 40.0075C48.0159 39.8148 48.259 39.3815 48.259 38.9484C48.259 38.0577 47.6513 37.5522 46.5818 37.5522H44.2972V42.9202H46.582C47.7487 42.9443 48.4536 42.2943 48.4536 41.211ZM46.582 42.0294H45.2938V40.5129H46.582C47.1168 40.5129 47.4084 40.7777 47.4084 41.2832C47.4084 41.7405 47.0924 42.0294 46.582 42.0294ZM46.5577 39.6222H45.2938V38.4668H46.5091C46.9952 38.4668 47.214 38.6594 47.214 39.0445C47.2383 39.3093 47.1167 39.6222 46.5577 39.6222ZM49.1585 41.235V39.0204H50.1308V41.1871C50.1308 41.837 50.3738 42.1499 50.86 42.1499C51.3463 42.1499 51.5892 41.837 51.5892 41.1871V39.0204H52.5614V42.9441H51.5892V42.6312C51.3463 42.896 51.0301 43.0404 50.6412 43.0404C49.353 43.0165 49.1585 41.909 49.1585 41.235ZM64.0826 42.9443H63.1105V39.0206H64.0826V39.3578C64.3257 39.0928 64.6662 38.9484 65.0792 38.9484C66.0272 38.9484 66.5376 39.5744 66.5376 40.7297V42.9443H65.5654V40.7777C65.5654 40.1277 65.3466 39.8148 64.8605 39.8148C64.3742 39.8148 64.107 40.152 64.107 40.7777V42.9443H64.0826ZM54.4331 40.9462V42.9441H53.4608V39.0204H54.4331V40.9462ZM55.3081 37.865L56.2804 37.3836V42.9441H55.3081V37.865ZM59.3916 39.2854C59.1486 39.0447 58.8569 38.9242 58.5166 38.9242C57.5685 38.9242 56.961 39.6944 56.961 40.9221C56.961 42.2221 57.5443 43.0165 58.4923 43.0165C58.8326 43.0165 59.1242 42.896 59.3916 42.6313V42.9202H60.3639V37.3597L59.3916 37.8411V39.2854ZM58.711 42.1257C58.3707 42.1257 57.9575 41.909 57.9575 40.9221C57.9575 40.0075 58.3464 39.8389 58.6867 39.8389C59.0513 39.8389 59.2701 40.0555 59.3918 40.224V41.7646C59.2458 41.9331 59.0756 42.1257 58.711 42.1257ZM80.7086 38.9242C80.3926 38.9242 80.0766 39.0687 79.8335 39.2854V37.4799L78.8613 37.9614V42.9202H79.8335V42.6313C80.0766 42.8721 80.3926 43.0165 80.7329 43.0165C81.7051 43.0165 82.2642 42.2462 82.2642 40.9221C82.2642 39.6944 81.6808 38.9242 80.7086 38.9242ZM80.5383 39.8148C80.9029 39.8148 81.2676 40.1037 81.2676 40.8982C81.2676 41.7165 81.0246 42.1016 80.5383 42.1016C80.1737 42.1016 79.9308 41.8609 79.8334 41.7405V40.2C80.0037 39.9592 80.2466 39.8148 80.5383 39.8148ZM69.6004 39.2854C69.3574 39.0447 69.0657 38.9242 68.7254 38.9242C67.7774 38.9242 67.1698 39.6944 67.1698 40.9221C67.1698 42.2221 67.7531 43.0165 68.7011 43.0165C69.0415 43.0165 69.3574 42.896 69.6004 42.6313V42.7276C69.6004 43.1609 69.6004 43.7386 68.3365 43.7627H68.2879L68.6282 44.533H68.6525C69.9406 44.5089 70.5727 43.8831 70.5727 42.5832V39.0204H69.6004V39.2854ZM69.6004 40.2V41.7405C69.4546 41.9331 69.2601 42.1257 68.8955 42.1257C68.5551 42.1257 68.1662 41.909 68.1662 40.9221C68.1662 40.0075 68.5551 39.8389 68.8955 39.8389C69.2601 39.8148 69.4789 40.0315 69.6004 40.2ZM73.611 39.9833C73.927 39.8148 74.2187 39.7185 74.6319 39.7185C75.0937 39.7185 75.337 39.9111 75.337 40.2722V40.5371C75.1182 40.4166 74.7777 40.3444 74.4862 40.3444C73.757 40.3444 72.9063 40.6815 72.9063 41.6202C72.9063 42.6312 73.7086 43.0163 74.3648 43.0163C74.6322 43.0163 75.0454 42.9201 75.3128 42.607V42.9199H76.2851V40.272C76.2851 39.4297 75.6774 38.8999 74.6807 38.8999C74.1461 38.8999 73.6598 39.0203 73.198 39.2851L73.611 39.9833ZM73.9027 41.6443C73.9027 41.3072 74.1458 41.0906 74.5833 41.0906C74.875 41.0906 75.118 41.1387 75.3611 41.2832V41.8128C75.2396 42.0294 74.9479 42.2221 74.5833 42.2221C74.1458 42.2221 73.9027 42.0053 73.9027 41.6443ZM85.4239 41.7887C85.2539 41.9572 85.0107 42.1258 84.6461 42.1258C84.4516 42.1258 83.8197 42.0536 83.7711 41.2593H86.2017V40.9704C86.2017 39.7187 85.5454 38.9242 84.5489 38.9242C83.528 38.9242 82.7745 39.7909 82.7745 40.9704C82.7745 42.1981 83.5037 43.0165 84.6461 43.0165C85.1565 43.0165 85.667 42.8238 86.0316 42.3905L85.4239 41.7887ZM83.7712 40.561C83.7954 40.0796 84.087 39.7426 84.5004 39.7426C85.0109 39.7426 85.2296 40.152 85.2539 40.561H83.7712ZM94.8551 41.7887C94.6849 41.9572 94.4418 42.1258 94.0772 42.1258C93.8826 42.1258 93.2508 42.0536 93.202 41.2593H95.6329V40.9704C95.6329 39.7187 94.9764 38.9242 93.98 38.9242C92.9591 38.9242 92.2056 39.7909 92.2056 40.9704C92.2056 42.1981 92.9348 43.0165 94.0772 43.0165C94.5877 43.0165 95.0981 42.8238 95.487 42.3905L94.8551 41.7887ZM93.2022 40.561C93.2264 40.0796 93.518 39.7426 93.9314 39.7426C94.4418 39.7426 94.6606 40.152 94.6848 40.561H93.2022ZM90.8443 41.572C90.8443 41.9092 90.966 42.1016 91.2577 42.1016C91.4521 42.1016 91.6709 42.0294 91.841 41.9331L91.7193 42.8478C91.5006 42.9682 91.2089 43.0404 90.8931 43.0404C90.1153 43.0404 89.8479 42.3905 89.8479 41.837V39.9353H89.2645V39.0206H89.872V38.0096L90.8443 37.5282V39.0204H91.7436V39.9352H90.8443V41.572ZM88.9485 42.8478C88.7298 42.9682 88.4381 43.0404 88.1221 43.0404C87.3443 43.0404 87.0769 42.3905 87.0769 41.837V39.9353H86.4693V39.0206H87.0769V38.0096L88.0492 37.5282V39.0204H88.8756V39.9352H88.0492V41.5961C88.0492 41.9331 88.1707 42.1257 88.4624 42.1257C88.657 42.1257 88.8758 42.0535 89.0459 41.9572L88.9485 42.8478ZM98.5983 40.1037C98.4098 39.9613 98.1789 39.885 97.9418 39.887C97.4557 39.887 97.237 40.1759 97.237 40.8017V42.9201H96.2647V38.9965H97.237V39.3335C97.48 39.0447 97.7717 38.9002 98.112 38.9002C98.3795 38.9002 98.6712 38.9964 98.8412 39.141L98.5983 40.1037ZM54.4331 37.9614V38.4429H53.4608V37.48H54.4331V37.9614ZM61.2389 39.0204H62.2112V42.9441H61.2389V39.0204ZM62.2112 37.9614V38.4429H61.2389V37.48H62.2112V37.9614ZM89.0701 46.1457C88.8272 45.9049 88.5353 45.7846 88.195 45.7846C87.2471 45.7846 86.6394 46.5549 86.6394 47.7825C86.6394 49.0824 87.2228 49.8768 88.1707 49.8768C88.5112 49.8768 88.8029 49.7564 89.0701 49.4918V49.7806H90.0423V44.2199L89.0701 44.7015V46.1457ZM88.3893 48.9861C88.049 48.9861 87.636 48.7695 87.636 47.7827C87.636 46.868 88.0247 46.6995 88.3652 46.6995C88.7298 46.6995 88.9485 46.9161 89.0701 47.0844V48.625C88.9242 48.7695 88.7539 48.9861 88.3893 48.9861ZM55.867 46.9641C55.6786 46.8217 55.4477 46.7454 55.2107 46.7474C54.7246 46.7474 54.5058 47.0363 54.5058 47.662V49.7805H53.5336V45.8568H54.5058V46.1938C54.7487 45.9049 55.0404 45.7605 55.3809 45.7605C55.6482 45.7605 55.9399 45.8568 56.1101 46.0012L55.867 46.9641ZM48.1618 45.8568H49.134L48.0159 49.7805H47.1654L46.7278 48.1436C46.6549 47.8547 46.5577 47.5176 46.5091 47.3011C46.4603 47.4696 46.3632 47.951 46.2903 48.1917L45.8528 49.7806H45.0264L43.9083 45.8569H44.9047L45.2694 47.3253C45.3181 47.566 45.4153 47.9993 45.4639 48.2882C45.5125 47.9993 45.634 47.566 45.707 47.3013L46.1202 45.8569H46.9466L47.3598 47.3013C47.4327 47.5662 47.53 47.9753 47.6029 48.2882C47.6515 48.0475 47.7244 47.6622 47.8216 47.3013L48.1618 45.8568ZM51.1273 45.7846C50.0823 45.7846 49.3288 46.6512 49.3288 47.8307C49.3288 49.0102 50.0823 49.8768 51.1273 49.8768C52.1725 49.8768 52.926 49.0102 52.926 47.8307C52.926 46.6272 52.1725 45.7846 51.1273 45.7846ZM51.1273 48.9622C50.6412 48.9622 50.3252 48.5048 50.3252 47.8308C50.3252 47.1327 50.6412 46.6996 51.1273 46.6996C51.6136 46.6996 51.9296 47.1568 51.9296 47.8308C51.9296 48.5048 51.6135 48.9622 51.1273 48.9622ZM84.2573 46.9641C84.069 46.8217 83.8381 46.7454 83.6011 46.7474C83.1149 46.7474 82.8962 47.0363 82.8962 47.662V49.7805H81.9239V45.8568H82.8962V46.1938C83.1391 45.9049 83.4308 45.7605 83.7712 45.7605C84.0386 45.7605 84.3303 45.8568 84.5004 46.0012L84.2573 46.9641ZM76.5764 45.8568H77.5487L76.4306 49.7805H75.5799L75.1423 48.1436C75.0694 47.8547 74.9722 47.5176 74.9236 47.3011C74.875 47.4696 74.7777 47.951 74.7048 48.1917L74.2673 49.7806H73.4166V49.7566L72.2986 45.8569H73.295L73.6596 47.3253C73.7084 47.566 73.8055 47.9993 73.8542 48.2882C73.9029 47.9993 74.0242 47.566 74.0972 47.3013L74.5105 45.8569H75.337L75.7502 47.3013C75.8231 47.5662 75.9203 47.9753 75.9932 48.2882C76.0418 48.0475 76.1148 47.6622 76.212 47.3013L76.5764 45.8568ZM79.5175 45.7846C78.4724 45.7846 77.7188 46.6512 77.7188 47.8307C77.7188 49.0102 78.4724 49.8768 79.5175 49.8768C80.5627 49.8768 81.3162 49.0102 81.3162 47.8307C81.3162 46.6512 80.5627 45.7846 79.5175 45.7846ZM79.5175 48.9622C79.0314 48.9622 78.7154 48.5289 78.7154 47.8308C78.7154 47.1327 79.0314 46.6996 79.5175 46.6996C80.0038 46.6996 80.3197 47.1568 80.3197 47.8308C80.3197 48.5048 80.0037 48.9622 79.5175 48.9622ZM58.784 47.1567L59.9993 49.7806H58.9298L58.1034 47.951L57.5929 48.6011V49.7806H56.6207V44.7254L57.5929 44.244V47.3733C57.7106 47.21 57.8321 47.0495 57.9575 46.8919L58.7353 45.8809H59.8534L58.784 47.1567ZM63.4264 49.7806H62.4541V45.8568H63.4264V46.1938C63.6694 45.929 64.0097 45.7846 64.4229 45.7846C65.3709 45.7846 65.8813 46.4106 65.8813 47.5659V49.7805H64.9091V47.6139C64.9091 46.9639 64.6903 46.651 64.2042 46.651C63.7179 46.651 63.4507 46.9882 63.4507 47.6139V49.7805H63.4264V49.7806ZM68.9441 46.1457C68.7011 45.9049 68.4094 45.7846 68.0691 45.7846C67.121 45.7846 66.5135 46.5549 66.5135 47.7825C66.5135 49.0824 67.0968 49.8768 68.0448 49.8768C68.3851 49.8768 68.7011 49.7564 68.9441 49.4918V49.5879C68.9441 50.0212 68.9441 50.5989 67.6802 50.623H67.6314L67.9719 51.3933H67.9962C69.2843 51.3692 69.9164 50.7432 69.9164 49.4433V45.8807H68.9441V46.1457ZM68.9441 47.0605V48.6011C68.7983 48.7937 68.6037 48.9861 68.2391 48.9861C67.8988 48.9861 67.5099 48.7695 67.5099 47.7827C67.5099 46.868 67.8988 46.6995 68.2391 46.6995C68.6037 46.6752 68.8224 46.8919 68.9441 47.0605ZM60.5826 45.8568H61.5549V49.7806H60.5826V45.8568ZM61.5549 44.8217V45.3033H60.5826V44.3404H61.5549V44.8217ZM84.9864 44.7254L85.9587 44.244V49.7806H84.9864V44.7254ZM15.5424 41.8128H22.9071V37.5761H15.5424V34.2543H23.7093L21.0114 29.5844H9.44141V49.7806H25.7512V45.1346H15.5424V41.8128ZM36.6163 29.5844L33.1647 36.18L29.713 29.5844H22.9315L30.0533 41.8128V49.7806H36.1543V41.8128L43.276 29.5844H36.6163Z" fill="#58595B"/>
</svg>
