<svg width="23" height="23" viewBox="0 0 23 23" fill="none" xmlns="http://www.w3.org/2000/svg">
<path fill-rule="evenodd" clip-rule="evenodd" d="M9.03596 8.59537H12.5952V10.3683C13.1079 9.34862 14.4228 8.43246 16.3979 8.43246C20.1843 8.43246 21.0832 10.4622 21.0832 14.1863V21.0834H17.2498V15.0344C17.2498 12.9136 16.7371 11.7176 15.4319 11.7176C13.6216 11.7176 12.8693 13.0066 12.8693 15.0335V21.0834H9.03596V8.59537ZM2.46275 20.9205H6.29609V8.43246H2.46275V20.9205ZM6.84521 4.3605C6.84535 4.6818 6.78163 4.99993 6.65775 5.29639C6.53387 5.59286 6.3523 5.86174 6.12359 6.08742C5.66014 6.54801 5.03282 6.80583 4.37942 6.80425C3.72717 6.80381 3.1013 6.54665 2.63717 6.08837C2.40929 5.86193 2.22833 5.59275 2.10467 5.29625C1.981 4.99974 1.91706 4.68176 1.9165 4.3605C1.9165 3.71171 2.17525 3.09071 2.63813 2.63262C3.10185 2.17373 3.72798 1.91646 4.38038 1.91675C5.03396 1.91675 5.66071 2.17454 6.12359 2.63262C6.5855 3.09071 6.84521 3.71171 6.84521 4.3605Z" fill="#1FAAFF"/>
</svg>
