<svg width="221" height="58" viewBox="0 0 221 58" fill="none" xmlns="http://www.w3.org/2000/svg">
<path d="M6.51758 5.83237H10.659L20.6568 16.5985L16.3416 21.3649H6.51758V5.83237Z" fill="#FE1DB3"/>
<path d="M0 11.4694L4.93722 6.92071V11.4694H0Z" fill="#1FAAFF"/>
<path d="M18.2694 21.3649L37.7941 0.937644V21.3649H18.2694Z" fill="#1FAAFF"/>
<path d="M39.3745 0H60.3955L39.3745 20.1705V0Z" fill="#1FAAFF"/>
<path d="M52.107 10.3197L59.157 3.55523L61.7237 4.6045L52.107 10.3197Z" fill="#1FAAFF"/>
<path d="M7.4983 22.8941H37.7941L29.203 45.6599L7.4983 22.8941Z" fill="#FE1DB3"/>
<path d="M37.7941 26.254V58L28.0934 52.7257L37.7941 26.254Z" fill="#FE1DB3"/>
<path d="M56.156 50.1282V23.2452H51.802V50.1282H56.156Z" fill="black"/>
<path d="M74.7322 35.1393C73.5686 33.3123 71.2415 32.2683 68.8392 32.2683C63.8847 32.2683 60.2813 36.146 60.2813 41.4033C60.2813 46.8097 64.0348 50.5756 68.7266 50.5756C71.2415 50.5756 73.5686 49.3079 74.7322 47.4063V50.1282H79.0862V32.7157H74.7322V35.1393ZM69.6275 46.5487C66.7748 46.5487 64.6354 44.1997 64.6354 41.4033C64.6354 38.6069 66.7748 36.2952 69.5899 36.2952C72.1798 36.2952 74.6571 38.4205 74.6571 41.4033C74.6571 44.3116 72.33 46.5487 69.6275 46.5487Z" fill="black"/>
<path d="M101.694 43.9387L97.9785 32.7157H94.1124L90.3965 43.9387L86.6805 32.7157H81.9887L88.4822 50.1282H92.1231L96.0267 38.234L100.118 50.1282H103.796L110.102 32.7157H105.41L101.694 43.9387Z" fill="black"/>
<path d="M128.694 27.272V23.2452H126.629C121.75 23.2452 119.348 26.2653 119.348 31.2616V32.7157H116.007V36.146H119.348V50.1282H123.702V36.146H127.605V32.7157H123.702V31.0379C123.664 28.9126 124.528 27.272 127.493 27.272H128.694Z" fill="black"/>
<path d="M138.709 50.5756C143.701 50.5756 148.055 46.9216 148.055 41.4033C148.055 35.885 143.701 32.2683 138.709 32.2683C133.717 32.2683 129.4 35.885 129.4 41.4033C129.4 46.9216 133.717 50.5756 138.709 50.5756ZM138.709 46.5487C136.006 46.5487 133.792 44.4607 133.792 41.4033C133.792 38.4205 136.006 36.2952 138.709 36.2952C141.411 36.2952 143.663 38.4205 143.663 41.4033C143.663 44.4607 141.411 46.5487 138.709 46.5487Z" fill="black"/>
<path d="M161.536 32.2683C159.359 32.2683 157.444 33.536 156.506 36.4443V32.7157H152.152V50.1282H156.543V44.0506C156.543 39.1662 158.12 36.3325 160.973 36.3325C161.611 36.3325 162.511 36.4443 163.525 36.9663L164.388 32.8649C163.713 32.492 162.587 32.2683 161.536 32.2683Z" fill="black"/>
<path d="M192.211 32.2683C190.447 32.2683 187.707 33.0513 186.318 35.7732C185.267 33.5733 183.203 32.2683 180.65 32.2683C178.436 32.2683 175.921 33.5733 175.433 35.9223V32.7157H171.079V50.1282H175.433V40.844C175.433 37.5256 177.46 36.3325 179.487 36.3325C181.363 36.3325 182.827 37.8239 182.827 40.583V50.1282H187.181V41.5152C187.181 38.0476 188.608 36.3325 191.122 36.3325C193.149 36.3325 194.613 37.7866 194.613 40.583V50.1282H198.93V40.3593C198.93 35.2885 196.602 32.2683 192.211 32.2683Z" fill="black"/>
<path d="M221 41.2542C221 35.8105 217.059 32.2683 212.067 32.2683C207.037 32.2683 202.871 35.8477 202.871 41.4033C202.871 46.847 206.849 50.5756 212.067 50.5756C215.257 50.5756 218.373 49.1587 219.987 46.6233L217.059 44.4235C216.045 45.8403 214.206 46.6606 212.329 46.6606C209.702 46.6606 207.825 45.3556 207.337 42.932H220.925C220.962 42.2982 221 41.7389 221 41.2542ZM207.337 39.9119C207.863 37.2646 209.777 36.1087 212.104 36.1087C214.544 36.1087 216.421 37.5256 216.683 39.9119H207.337Z" fill="black"/>
</svg>
