<svg width="24" height="24" viewBox="0 0 24 24" fill="none" xmlns="http://www.w3.org/2000/svg">
<path d="M12.0005 8.24985C12.0005 6.18735 13.7349 4.47173 15.7974 4.49985C16.5197 4.50819 17.2242 4.72496 17.8262 5.12411C18.4283 5.52326 18.9022 6.08779 19.1911 6.74985H22.5005L19.4724 9.77798C19.277 12.8198 17.9305 15.673 15.7066 17.7575C13.4828 19.842 10.5486 21.0014 7.50051 20.9999C4.50051 20.9999 3.75051 19.8749 3.75051 19.8749C3.75051 19.8749 6.75051 18.7499 8.25051 16.4999C8.25051 16.4999 2.25051 13.4999 3.75051 5.24985C3.75051 5.24985 7.50051 8.99985 12.0005 9.74985V8.24985Z" fill="#1FAAFF"/>
</svg>
